<?xml version="1.0" encoding="UTF-8"?>
<!DOCTYPE svg
PUBLIC "-//W3C//DTD SVG 1.1//EN"
       "http://www.w3.org/Graphics/SVG/1.1/DTD/svg11.dtd">
<svg viewBox="73 -3 2013 859" width="1940px" height="862px" xmlns="http://www.w3.org/2000/svg" version="1.1">
   <line x1="1576" y1="87" x2="1566" y2="87" style="stroke:#0b0;stroke-width:1;"/>
   <line x1="1594" y1="304" x2="1584" y2="304" style="stroke:#0b0;stroke-width:1;"/>
   <line x1="1566" y1="87" x2="1594" y2="304" style="stroke:#0b0;stroke-width:1;"/>
   <line x1="1568.5" y1="87" x2="1572.0355339059" y2="90.535533905933" style="stroke:#0b0;stroke-width:2;"/>
   <line x1="1568.5" y1="87" x2="1572.0355339059" y2="83.464466094067" style="stroke:#0b0;stroke-width:2;"/>
   <line x1="1589" y1="304" x2="1592.5355339059" y2="307.53553390593" style="stroke:#0b0;stroke-width:2;"/>
   <line x1="1589" y1="304" x2="1592.5355339059" y2="300.46446609407" style="stroke:#0b0;stroke-width:2;"/>
   <line x1="186" y1="225" x2="196" y2="225" style="stroke:#c00;stroke-width:1;"/>
   <line x1="1456" y1="304" x2="1466" y2="304" style="stroke:#c00;stroke-width:1;"/>
   <line x1="196" y1="225" x2="1456" y2="304" style="stroke:#c00;stroke-width:1;"/>
   <line x1="193.5" y1="225" x2="189.96446609407" y2="228.53553390593" style="stroke:#c00;stroke-width:2;"/>
   <line x1="193.5" y1="225" x2="189.96446609407" y2="221.46446609407" style="stroke:#c00;stroke-width:2;"/>
   <line x1="1461" y1="304" x2="1457.4644660941" y2="307.53553390593" style="stroke:#c00;stroke-width:2;"/>
   <line x1="1461" y1="304" x2="1457.4644660941" y2="300.46446609407" style="stroke:#c00;stroke-width:2;"/>
   <line x1="88" y1="551" x2="78" y2="551" style="stroke:#c00;stroke-width:1;"/>
   <line x1="90" y1="185" x2="100" y2="185" style="stroke:#c00;stroke-width:1;"/>
   <line x1="78" y1="551" x2="90" y2="185" style="stroke:#c00;stroke-width:1;"/>
   <line x1="80.5" y1="551" x2="84.035533905933" y2="554.53553390593" style="stroke:#c00;stroke-width:2;"/>
   <line x1="80.5" y1="551" x2="84.035533905933" y2="547.46446609407" style="stroke:#c00;stroke-width:2;"/>
   <line x1="95" y1="185" x2="91.464466094067" y2="188.53553390593" style="stroke:#c00;stroke-width:2;"/>
   <line x1="95" y1="185" x2="91.464466094067" y2="181.46446609407" style="stroke:#c00;stroke-width:2;"/>
   <line x1="1880" y1="577" x2="1870" y2="577" style="stroke:#0bf;stroke-width:1;"/>
   <line x1="1594" y1="304" x2="1584" y2="304" style="stroke:#0bf;stroke-width:1;"/>
   <line x1="1870" y1="577" x2="1594" y2="304" style="stroke:#0bf;stroke-width:1;"/>
   <line x1="1872.5" y1="577" x2="1876.0355339059" y2="580.53553390593" style="stroke:#0bf;stroke-width:2;"/>
   <line x1="1872.5" y1="577" x2="1876.0355339059" y2="573.46446609407" style="stroke:#0bf;stroke-width:2;"/>
   <line x1="1589" y1="304" x2="1592.5355339059" y2="307.53553390593" style="stroke:#0bf;stroke-width:2;"/>
   <line x1="1589" y1="304" x2="1592.5355339059" y2="300.46446609407" style="stroke:#0bf;stroke-width:2;"/>
   <line x1="498" y1="341" x2="488" y2="341" style="stroke:#0bf;stroke-width:1;"/>
   <line x1="196" y1="185" x2="186" y2="185" style="stroke:#0bf;stroke-width:1;"/>
   <line x1="488" y1="341" x2="196" y2="185" style="stroke:#0bf;stroke-width:1;"/>
   <line x1="490.5" y1="341" x2="494.03553390593" y2="344.53553390593" style="stroke:#0bf;stroke-width:2;"/>
   <line x1="490.5" y1="341" x2="494.03553390593" y2="337.46446609407" style="stroke:#0bf;stroke-width:2;"/>
   <line x1="191" y1="185" x2="194.53553390593" y2="188.53553390593" style="stroke:#0bf;stroke-width:2;"/>
   <line x1="191" y1="185" x2="194.53553390593" y2="181.46446609407" style="stroke:#0bf;stroke-width:2;"/>
   <line x1="673" y1="361" x2="683" y2="361" style="stroke:#c00;stroke-width:1;"/>
   <line x1="1456" y1="304" x2="1466" y2="304" style="stroke:#c00;stroke-width:1;"/>
   <line x1="683" y1="361" x2="1456" y2="304" style="stroke:#c00;stroke-width:1;"/>
   <line x1="680.5" y1="361" x2="676.96446609407" y2="364.53553390593" style="stroke:#c00;stroke-width:2;"/>
   <line x1="680.5" y1="361" x2="676.96446609407" y2="357.46446609407" style="stroke:#c00;stroke-width:2;"/>
   <line x1="1461" y1="304" x2="1457.4644660941" y2="307.53553390593" style="stroke:#c00;stroke-width:2;"/>
   <line x1="1461" y1="304" x2="1457.4644660941" y2="300.46446609407" style="stroke:#c00;stroke-width:2;"/>
   <line x1="498" y1="381" x2="488" y2="381" style="stroke:#0bf;stroke-width:1;"/>
   <line x1="238" y1="531" x2="228" y2="531" style="stroke:#0bf;stroke-width:1;"/>
   <line x1="488" y1="381" x2="238" y2="531" style="stroke:#0bf;stroke-width:1;"/>
   <line x1="490.5" y1="381" x2="494.03553390593" y2="384.53553390593" style="stroke:#0bf;stroke-width:2;"/>
   <line x1="490.5" y1="381" x2="494.03553390593" y2="377.46446609407" style="stroke:#0bf;stroke-width:2;"/>
   <line x1="233" y1="531" x2="236.53553390593" y2="534.53553390593" style="stroke:#0bf;stroke-width:2;"/>
   <line x1="233" y1="531" x2="236.53553390593" y2="527.46446609407" style="stroke:#0bf;stroke-width:2;"/>
   <line x1="673" y1="481" x2="683" y2="481" style="stroke:#0bf;stroke-width:1;"/>
   <line x1="1020" y1="79" x2="1030" y2="79" style="stroke:#0bf;stroke-width:1;"/>
   <line x1="683" y1="481" x2="1020" y2="79" style="stroke:#0bf;stroke-width:1;"/>
   <line x1="680.5" y1="481" x2="676.96446609407" y2="484.53553390593" style="stroke:#0bf;stroke-width:2;"/>
   <line x1="680.5" y1="481" x2="676.96446609407" y2="477.46446609407" style="stroke:#0bf;stroke-width:2;"/>
   <line x1="1025" y1="79" x2="1021.4644660941" y2="82.535533905933" style="stroke:#0bf;stroke-width:2;"/>
   <line x1="1025" y1="79" x2="1021.4644660941" y2="75.464466094067" style="stroke:#0bf;stroke-width:2;"/>
   <line x1="673" y1="501" x2="683" y2="501" style="stroke:#0bf;stroke-width:1;"/>
   <line x1="1870" y1="557" x2="1880" y2="557" style="stroke:#0bf;stroke-width:1;"/>
   <line x1="683" y1="501" x2="1870" y2="557" style="stroke:#0bf;stroke-width:1;"/>
   <line x1="680.5" y1="501" x2="676.96446609407" y2="504.53553390593" style="stroke:#0bf;stroke-width:2;"/>
   <line x1="680.5" y1="501" x2="676.96446609407" y2="497.46446609407" style="stroke:#0bf;stroke-width:2;"/>
   <line x1="1875" y1="557" x2="1871.4644660941" y2="560.53553390593" style="stroke:#0bf;stroke-width:2;"/>
   <line x1="1875" y1="557" x2="1871.4644660941" y2="553.46446609407" style="stroke:#0bf;stroke-width:2;"/>
   <line x1="1140" y1="403" x2="1130" y2="403" style="stroke:#c00;stroke-width:1;"/>
   <line x1="683" y1="321" x2="673" y2="321" style="stroke:#c00;stroke-width:1;"/>
   <line x1="1130" y1="403" x2="683" y2="321" style="stroke:#c00;stroke-width:1;"/>
   <line x1="1132.5" y1="403" x2="1136.0355339059" y2="406.53553390593" style="stroke:#c00;stroke-width:2;"/>
   <line x1="1132.5" y1="403" x2="1136.0355339059" y2="399.46446609407" style="stroke:#c00;stroke-width:2;"/>
   <line x1="678" y1="321" x2="681.53553390593" y2="324.53553390593" style="stroke:#c00;stroke-width:2;"/>
   <line x1="678" y1="321" x2="681.53553390593" y2="317.46446609407" style="stroke:#c00;stroke-width:2;"/>
   <line x1="1057" y1="674" x2="1047" y2="674" style="stroke:#cb0;stroke-width:1;"/>
   <line x1="683" y1="321" x2="673" y2="321" style="stroke:#cb0;stroke-width:1;"/>
   <line x1="1047" y1="674" x2="683" y2="321" style="stroke:#cb0;stroke-width:1;"/>
   <line x1="1049.5" y1="674" x2="1053.0355339059" y2="677.53553390593" style="stroke:#cb0;stroke-width:2;"/>
   <line x1="1049.5" y1="674" x2="1053.0355339059" y2="670.46446609407" style="stroke:#cb0;stroke-width:2;"/>
   <line x1="678" y1="321" x2="681.53553390593" y2="324.53553390593" style="stroke:#cb0;stroke-width:2;"/>
   <line x1="678" y1="321" x2="681.53553390593" y2="317.46446609407" style="stroke:#cb0;stroke-width:2;"/>
   <rect width="93" height="20" x="1030" y="49" style="fill:#007;stroke:black;"/>
   <text width="93" height="20" x="1035" y="63" style="fill:#fff;" font-family="Arial" font-size="16px"> ambulances</text>
   <rect width="93" height="20" x="1030" y="69" style="fill:#aea;stroke:black;"/>
   <text width="93" height="20" x="1035" y="83" style="fill:black;" font-family="Arial" font-size="16px">id</text>
   <rect width="93" height="20" x="1030" y="89" style="fill:none;stroke:black;"/>
   <text width="93" height="20" x="1035" y="103" style="fill:black;" font-family="Arial" font-size="16px">code</text>
   <rect width="93" height="20" x="1030" y="109" style="fill:none;stroke:black;"/>
   <text width="93" height="20" x="1035" y="123" style="fill:black;" font-family="Arial" font-size="16px">lat</text>
   <rect width="93" height="20" x="1030" y="129" style="fill:none;stroke:black;"/>
   <text width="93" height="20" x="1035" y="143" style="fill:black;" font-family="Arial" font-size="16px">lng</text>
   <rect width="93" height="20" x="1030" y="149" style="fill:none;stroke:black;"/>
   <text width="93" height="20" x="1035" y="163" style="fill:black;" font-family="Arial" font-size="16px">status</text>
   <rect width="93" height="20" x="1030" y="169" style="fill:none;stroke:black;"/>
   <text width="93" height="20" x="1035" y="183" style="fill:black;" font-family="Arial" font-size="16px">created_at</text>
   <rect width="93" height="20" x="1030" y="189" style="fill:none;stroke:black;"/>
   <text width="93" height="20" x="1035" y="203" style="fill:black;" font-family="Arial" font-size="16px">updated_at</text>
   <rect width="156" height="20" x="1576" y="37" style="fill:#007;stroke:black;"/>
   <text width="156" height="20" x="1581" y="51" style="fill:#fff;" font-family="Arial" font-size="16px"> audit_admin_changes</text>
   <rect width="156" height="20" x="1576" y="57" style="fill:#aea;stroke:black;"/>
   <text width="156" height="20" x="1581" y="71" style="fill:black;" font-family="Arial" font-size="16px">id</text>
   <rect width="156" height="20" x="1576" y="77" style="fill:none;stroke:black;"/>
   <text width="156" height="20" x="1581" y="91" style="fill:black;" font-family="Arial" font-size="16px">admin_user_id</text>
   <rect width="156" height="20" x="1576" y="97" style="fill:none;stroke:black;"/>
   <text width="156" height="20" x="1581" y="111" style="fill:black;" font-family="Arial" font-size="16px">action</text>
   <rect width="156" height="20" x="1576" y="117" style="fill:none;stroke:black;"/>
   <text width="156" height="20" x="1581" y="131" style="fill:black;" font-family="Arial" font-size="16px">target_table</text>
   <rect width="156" height="20" x="1576" y="137" style="fill:none;stroke:black;"/>
   <text width="156" height="20" x="1581" y="151" style="fill:black;" font-family="Arial" font-size="16px">target_id</text>
   <rect width="156" height="20" x="1576" y="157" style="fill:none;stroke:black;"/>
   <text width="156" height="20" x="1581" y="171" style="fill:black;" font-family="Arial" font-size="16px">note</text>
   <rect width="156" height="20" x="1576" y="177" style="fill:none;stroke:black;"/>
   <text width="156" height="20" x="1581" y="191" style="fill:black;" font-family="Arial" font-size="16px">created_at</text>
   <rect width="86" height="20" x="100" y="155" style="fill:#007;stroke:black;"/>
   <text width="86" height="20" x="105" y="169" style="fill:#fff;" font-family="Arial" font-size="16px"> devices</text>
   <rect width="86" height="20" x="100" y="175" style="fill:#aea;stroke:black;"/>
   <text width="86" height="20" x="105" y="189" style="fill:black;" font-family="Arial" font-size="16px">id</text>
   <rect width="86" height="20" x="100" y="195" style="fill:none;stroke:black;"/>
   <text width="86" height="20" x="105" y="209" style="fill:black;" font-family="Arial" font-size="16px">device_uid</text>
   <rect width="86" height="20" x="100" y="215" style="fill:none;stroke:black;"/>
   <text width="86" height="20" x="105" y="229" style="fill:black;" font-family="Arial" font-size="16px">user_id</text>
   <rect width="86" height="20" x="100" y="235" style="fill:none;stroke:black;"/>
   <text width="86" height="20" x="105" y="249" style="fill:black;" font-family="Arial" font-size="16px">car_plate</text>
   <rect width="86" height="20" x="100" y="255" style="fill:none;stroke:black;"/>
   <text width="86" height="20" x="105" y="269" style="fill:black;" font-family="Arial" font-size="16px">car_model</text>
   <rect width="86" height="20" x="100" y="275" style="fill:none;stroke:black;"/>
   <text width="86" height="20" x="105" y="289" style="fill:black;" font-family="Arial" font-size="16px">status</text>
   <rect width="86" height="20" x="100" y="295" style="fill:none;stroke:black;"/>
   <text width="86" height="20" x="105" y="309" style="fill:black;" font-family="Arial" font-size="16px">created_at</text>
   <rect width="86" height="20" x="100" y="315" style="fill:none;stroke:black;"/>
   <text width="86" height="20" x="105" y="329" style="fill:black;" font-family="Arial" font-size="16px">updated_at</text>
   <rect width="140" height="20" x="88" y="501" style="fill:#007;stroke:black;"/>
   <text width="140" height="20" x="93" y="515" style="fill:#fff;" font-family="Arial" font-size="16px"> hardware_requests</text>
   <rect width="140" height="20" x="88" y="521" style="fill:#aea;stroke:black;"/>
   <text width="140" height="20" x="93" y="535" style="fill:black;" font-family="Arial" font-size="16px">id</text>
   <rect width="140" height="20" x="88" y="541" style="fill:none;stroke:black;"/>
   <text width="140" height="20" x="93" y="555" style="fill:black;" font-family="Arial" font-size="16px">device_id</text>
   <rect width="140" height="20" x="88" y="561" style="fill:none;stroke:black;"/>
   <text width="140" height="20" x="93" y="575" style="fill:black;" font-family="Arial" font-size="16px">lat</text>
   <rect width="140" height="20" x="88" y="581" style="fill:none;stroke:black;"/>
   <text width="140" height="20" x="93" y="595" style="fill:black;" font-family="Arial" font-size="16px">lng</text>
   <rect width="140" height="20" x="88" y="601" style="fill:none;stroke:black;"/>
   <text width="140" height="20" x="93" y="615" style="fill:black;" font-family="Arial" font-size="16px">request_type</text>
   <rect width="140" height="20" x="88" y="621" style="fill:none;stroke:black;"/>
   <text width="140" height="20" x="93" y="635" style="fill:black;" font-family="Arial" font-size="16px">raw_payload</text>
   <rect width="140" height="20" x="88" y="641" style="fill:none;stroke:black;"/>
   <text width="140" height="20" x="93" y="655" style="fill:black;" font-family="Arial" font-size="16px">incident_id</text>
   <rect width="140" height="20" x="88" y="661" style="fill:none;stroke:black;"/>
   <text width="140" height="20" x="93" y="675" style="fill:black;" font-family="Arial" font-size="16px">received_at</text>
   <rect width="118" height="20" x="1880" y="527" style="fill:#007;stroke:black;"/>
   <text width="118" height="20" x="1885" y="541" style="fill:#fff;" font-family="Arial" font-size="16px"> hospitals</text>
   <rect width="118" height="20" x="1880" y="547" style="fill:#aea;stroke:black;"/>
   <text width="118" height="20" x="1885" y="561" style="fill:black;" font-family="Arial" font-size="16px">id</text>
   <rect width="118" height="20" x="1880" y="567" style="fill:none;stroke:black;"/>
   <text width="118" height="20" x="1885" y="581" style="fill:black;" font-family="Arial" font-size="16px">user_id</text>
   <rect width="118" height="20" x="1880" y="587" style="fill:none;stroke:black;"/>
   <text width="118" height="20" x="1885" y="601" style="fill:black;" font-family="Arial" font-size="16px">name</text>
   <rect width="118" height="20" x="1880" y="607" style="fill:none;stroke:black;"/>
   <text width="118" height="20" x="1885" y="621" style="fill:black;" font-family="Arial" font-size="16px">country</text>
   <rect width="118" height="20" x="1880" y="627" style="fill:none;stroke:black;"/>
   <text width="118" height="20" x="1885" y="641" style="fill:black;" font-family="Arial" font-size="16px">governorate</text>
   <rect width="118" height="20" x="1880" y="647" style="fill:none;stroke:black;"/>
   <text width="118" height="20" x="1885" y="661" style="fill:black;" font-family="Arial" font-size="16px">city</text>
   <rect width="118" height="20" x="1880" y="667" style="fill:none;stroke:black;"/>
   <text width="118" height="20" x="1885" y="681" style="fill:black;" font-family="Arial" font-size="16px">street</text>
   <rect width="118" height="20" x="1880" y="687" style="fill:none;stroke:black;"/>
   <text width="118" height="20" x="1885" y="701" style="fill:black;" font-family="Arial" font-size="16px">address_details</text>
   <rect width="118" height="20" x="1880" y="707" style="fill:none;stroke:black;"/>
   <text width="118" height="20" x="1885" y="721" style="fill:black;" font-family="Arial" font-size="16px">lat</text>
   <rect width="118" height="20" x="1880" y="727" style="fill:none;stroke:black;"/>
   <text width="118" height="20" x="1885" y="741" style="fill:black;" font-family="Arial" font-size="16px">lng</text>
   <rect width="118" height="20" x="1880" y="747" style="fill:none;stroke:black;"/>
   <text width="118" height="20" x="1885" y="761" style="fill:black;" font-family="Arial" font-size="16px">phone</text>
   <rect width="118" height="20" x="1880" y="767" style="fill:none;stroke:black;"/>
   <text width="118" height="20" x="1885" y="781" style="fill:black;" font-family="Arial" font-size="16px">created_at</text>
   <rect width="118" height="20" x="1880" y="787" style="fill:none;stroke:black;"/>
   <text width="118" height="20" x="1885" y="801" style="fill:black;" font-family="Arial" font-size="16px">updated_at</text>
   <rect width="175" height="20" x="498" y="291" style="fill:#007;stroke:black;"/>
   <text width="175" height="20" x="503" y="305" style="fill:#fff;" font-family="Arial" font-size="16px"> incidents</text>
   <rect width="175" height="20" x="498" y="311" style="fill:#aea;stroke:black;"/>
   <text width="175" height="20" x="503" y="325" style="fill:black;" font-family="Arial" font-size="16px">id</text>
   <rect width="175" height="20" x="498" y="331" style="fill:none;stroke:black;"/>
   <text width="175" height="20" x="503" y="345" style="fill:black;" font-family="Arial" font-size="16px">device_id</text>
   <rect width="175" height="20" x="498" y="351" style="fill:none;stroke:black;"/>
   <text width="175" height="20" x="503" y="365" style="fill:black;" font-family="Arial" font-size="16px">user_id</text>
   <rect width="175" height="20" x="498" y="371" style="fill:none;stroke:black;"/>
   <text width="175" height="20" x="503" y="385" style="fill:black;" font-family="Arial" font-size="16px">hardware_request_id</text>
   <rect width="175" height="20" x="498" y="391" style="fill:none;stroke:black;"/>
   <text width="175" height="20" x="503" y="405" style="fill:black;" font-family="Arial" font-size="16px">status</text>
   <rect width="175" height="20" x="498" y="411" style="fill:none;stroke:black;"/>
   <text width="175" height="20" x="503" y="425" style="fill:black;" font-family="Arial" font-size="16px">mode</text>
   <rect width="175" height="20" x="498" y="431" style="fill:none;stroke:black;"/>
   <text width="175" height="20" x="503" y="445" style="fill:black;" font-family="Arial" font-size="16px">lat</text>
   <rect width="175" height="20" x="498" y="451" style="fill:none;stroke:black;"/>
   <text width="175" height="20" x="503" y="465" style="fill:black;" font-family="Arial" font-size="16px">lng</text>
   <rect width="175" height="20" x="498" y="471" style="fill:none;stroke:black;"/>
   <text width="175" height="20" x="503" y="485" style="fill:black;" font-family="Arial" font-size="16px">assigned_ambulance_id</text>
   <rect width="175" height="20" x="498" y="491" style="fill:none;stroke:black;"/>
   <text width="175" height="20" x="503" y="505" style="fill:black;" font-family="Arial" font-size="16px">assigned_hospital_id</text>
   <rect width="175" height="20" x="498" y="511" style="fill:none;stroke:black;"/>
   <text width="175" height="20" x="503" y="525" style="fill:black;" font-family="Arial" font-size="16px">confirmation_deadline</text>
   <rect width="175" height="20" x="498" y="531" style="fill:none;stroke:black;"/>
   <text width="175" height="20" x="503" y="545" style="fill:black;" font-family="Arial" font-size="16px">created_at</text>
   <rect width="175" height="20" x="498" y="551" style="fill:none;stroke:black;"/>
   <text width="175" height="20" x="503" y="565" style="fill:black;" font-family="Arial" font-size="16px">confirmed_at</text>
   <rect width="175" height="20" x="498" y="571" style="fill:none;stroke:black;"/>
   <text width="175" height="20" x="503" y="585" style="fill:black;" font-family="Arial" font-size="16px">resolved_at</text>
   <rect width="175" height="20" x="498" y="591" style="fill:none;stroke:black;"/>
   <text width="175" height="20" x="503" y="605" style="fill:black;" font-family="Arial" font-size="16px">updated_at</text>
   <rect width="105" height="20" x="1140" y="353" style="fill:#007;stroke:black;"/>
   <text width="105" height="20" x="1145" y="367" style="fill:#fff;" font-family="Arial" font-size="16px"> incident_logs</text>
   <rect width="105" height="20" x="1140" y="373" style="fill:#aea;stroke:black;"/>
   <text width="105" height="20" x="1145" y="387" style="fill:black;" font-family="Arial" font-size="16px">id</text>
   <rect width="105" height="20" x="1140" y="393" style="fill:none;stroke:black;"/>
   <text width="105" height="20" x="1145" y="407" style="fill:black;" font-family="Arial" font-size="16px">incident_id</text>
   <rect width="105" height="20" x="1140" y="413" style="fill:none;stroke:black;"/>
   <text width="105" height="20" x="1145" y="427" style="fill:black;" font-family="Arial" font-size="16px">action</text>
   <rect width="105" height="20" x="1140" y="433" style="fill:none;stroke:black;"/>
   <text width="105" height="20" x="1145" y="447" style="fill:black;" font-family="Arial" font-size="16px">performed_by</text>
   <rect width="105" height="20" x="1140" y="453" style="fill:none;stroke:black;"/>
   <text width="105" height="20" x="1145" y="467" style="fill:black;" font-family="Arial" font-size="16px">note</text>
   <rect width="105" height="20" x="1140" y="473" style="fill:none;stroke:black;"/>
   <text width="105" height="20" x="1145" y="487" style="fill:black;" font-family="Arial" font-size="16px">created_at</text>
   <rect width="111" height="20" x="686" y="12" style="fill:#007;stroke:black;"/>
   <text width="111" height="20" x="691" y="26" style="fill:#fff;" font-family="Arial" font-size="16px"> notifications</text>
   <rect width="111" height="20" x="686" y="32" style="fill:#aea;stroke:black;"/>
   <text width="111" height="20" x="691" y="46" style="fill:black;" font-family="Arial" font-size="16px">id</text>
   <rect width="111" height="20" x="686" y="52" style="fill:none;stroke:black;"/>
   <text width="111" height="20" x="691" y="66" style="fill:black;" font-family="Arial" font-size="16px">kind</text>
   <rect width="111" height="20" x="686" y="72" style="fill:none;stroke:black;"/>
   <text width="111" height="20" x="691" y="86" style="fill:black;" font-family="Arial" font-size="16px">recipient</text>
   <rect width="111" height="20" x="686" y="92" style="fill:none;stroke:black;"/>
   <text width="111" height="20" x="691" y="106" style="fill:black;" font-family="Arial" font-size="16px">payload</text>
   <rect width="111" height="20" x="686" y="112" style="fill:none;stroke:black;"/>
   <text width="111" height="20" x="691" y="126" style="fill:black;" font-family="Arial" font-size="16px">status</text>
   <rect width="111" height="20" x="686" y="132" style="fill:none;stroke:black;"/>
   <text width="111" height="20" x="691" y="146" style="fill:black;" font-family="Arial" font-size="16px">attempts</text>
   <rect width="111" height="20" x="686" y="152" style="fill:none;stroke:black;"/>
   <text width="111" height="20" x="691" y="166" style="fill:black;" font-family="Arial" font-size="16px">last_attempt_at</text>
   <rect width="111" height="20" x="686" y="172" style="fill:none;stroke:black;"/>
   <text width="111" height="20" x="691" y="186" style="fill:black;" font-family="Arial" font-size="16px">created_at</text>
   <rect width="111" height="20" x="686" y="192" style="fill:none;stroke:black;"/>
   <text width="111" height="20" x="691" y="206" style="fill:black;" font-family="Arial" font-size="16px">updated_at</text>
   <rect width="88" height="20" x="443" y="83" style="fill:#007;stroke:black;"/>
   <text width="88" height="20" x="448" y="97" style="fill:#fff;" font-family="Arial" font-size="16px"> settings</text>
   <rect width="88" height="20" x="443" y="103" style="fill:none;stroke:black;"/>
   <text width="88" height="20" x="448" y="117" style="fill:black;" font-family="Arial" font-size="16px">key</text>
   <rect width="88" height="20" x="443" y="123" style="fill:none;stroke:black;"/>
   <text width="88" height="20" x="448" y="137" style="fill:black;" font-family="Arial" font-size="16px">value</text>
   <rect width="88" height="20" x="443" y="143" style="fill:none;stroke:black;"/>
   <text width="88" height="20" x="448" y="157" style="fill:black;" font-family="Arial" font-size="16px">description</text>
   <rect width="88" height="20" x="443" y="163" style="fill:none;stroke:black;"/>
   <text width="88" height="20" x="448" y="177" style="fill:black;" font-family="Arial" font-size="16px">updated_at</text>
   <rect width="118" height="20" x="1466" y="274" style="fill:#007;stroke:black;"/>
   <text width="118" height="20" x="1471" y="288" style="fill:#fff;" font-family="Arial" font-size="16px"> users</text>
   <rect width="118" height="20" x="1466" y="294" style="fill:#aea;stroke:black;"/>
   <text width="118" height="20" x="1471" y="308" style="fill:black;" font-family="Arial" font-size="16px">id</text>
   <rect width="118" height="20" x="1466" y="314" style="fill:none;stroke:black;"/>
   <text width="118" height="20" x="1471" y="328" style="fill:black;" font-family="Arial" font-size="16px">name</text>
   <rect width="118" height="20" x="1466" y="334" style="fill:none;stroke:black;"/>
   <text width="118" height="20" x="1471" y="348" style="fill:black;" font-family="Arial" font-size="16px">email</text>
   <rect width="118" height="20" x="1466" y="354" style="fill:none;stroke:black;"/>
   <text width="118" height="20" x="1471" y="368" style="fill:black;" font-family="Arial" font-size="16px">password_hash</text>
   <rect width="118" height="20" x="1466" y="374" style="fill:none;stroke:black;"/>
   <text width="118" height="20" x="1471" y="388" style="fill:black;" font-family="Arial" font-size="16px">phone</text>
   <rect width="118" height="20" x="1466" y="394" style="fill:none;stroke:black;"/>
   <text width="118" height="20" x="1471" y="408" style="fill:black;" font-family="Arial" font-size="16px">role</text>
   <rect width="118" height="20" x="1466" y="414" style="fill:none;stroke:black;"/>
   <text width="118" height="20" x="1471" y="428" style="fill:black;" font-family="Arial" font-size="16px">lang</text>
   <rect width="118" height="20" x="1466" y="434" style="fill:none;stroke:black;"/>
   <text width="118" height="20" x="1471" y="448" style="fill:black;" font-family="Arial" font-size="16px">is_active</text>
   <rect width="118" height="20" x="1466" y="454" style="fill:none;stroke:black;"/>
   <text width="118" height="20" x="1471" y="468" style="fill:black;" font-family="Arial" font-size="16px">created_at</text>
   <rect width="118" height="20" x="1466" y="474" style="fill:none;stroke:black;"/>
   <text width="118" height="20" x="1471" y="488" style="fill:black;" font-family="Arial" font-size="16px">updated_at</text>
   <rect width="153" height="20" x="1057" y="544" style="fill:#007;stroke:black;"/>
   <text width="153" height="20" x="1062" y="558" style="fill:#fff;" font-family="Arial" font-size="16px"> visitor_searches</text>
   <rect width="153" height="20" x="1057" y="564" style="fill:#aea;stroke:black;"/>
   <text width="153" height="20" x="1062" y="578" style="fill:black;" font-family="Arial" font-size="16px">id</text>
   <rect width="153" height="20" x="1057" y="584" style="fill:none;stroke:black;"/>
   <text width="153" height="20" x="1062" y="598" style="fill:black;" font-family="Arial" font-size="16px">visitor_name</text>
   <rect width="153" height="20" x="1057" y="604" style="fill:none;stroke:black;"/>
   <text width="153" height="20" x="1062" y="618" style="fill:black;" font-family="Arial" font-size="16px">visitor_email</text>
   <rect width="153" height="20" x="1057" y="624" style="fill:none;stroke:black;"/>
   <text width="153" height="20" x="1062" y="638" style="fill:black;" font-family="Arial" font-size="16px">device_uid_searched</text>
   <rect width="153" height="20" x="1057" y="644" style="fill:none;stroke:black;"/>
   <text width="153" height="20" x="1062" y="658" style="fill:black;" font-family="Arial" font-size="16px">search_query_raw</text>
   <rect width="153" height="20" x="1057" y="664" style="fill:none;stroke:black;"/>
   <text width="153" height="20" x="1062" y="678" style="fill:black;" font-family="Arial" font-size="16px">incident_id</text>
   <rect width="153" height="20" x="1057" y="684" style="fill:none;stroke:black;"/>
   <text width="153" height="20" x="1062" y="698" style="fill:black;" font-family="Arial" font-size="16px">created_at</text>
   <rect width="163" height="20" x="1336" y="564" style="fill:#007;stroke:black;"/>
   <text width="163" height="20" x="1341" y="578" style="fill:#fff;" font-family="Arial" font-size="16px"> v_live_dashboard</text>
   <rect width="163" height="20" x="1336" y="584" style="fill:none;stroke:black;"/>
   <text width="163" height="20" x="1341" y="598" style="fill:black;" font-family="Arial" font-size="16px">incident_id</text>
   <rect width="163" height="20" x="1336" y="604" style="fill:none;stroke:black;"/>
   <text width="163" height="20" x="1341" y="618" style="fill:black;" font-family="Arial" font-size="16px">status</text>
   <rect width="163" height="20" x="1336" y="624" style="fill:none;stroke:black;"/>
   <text width="163" height="20" x="1341" y="638" style="fill:black;" font-family="Arial" font-size="16px">created_at</text>
   <rect width="163" height="20" x="1336" y="644" style="fill:none;stroke:black;"/>
   <text width="163" height="20" x="1341" y="658" style="fill:black;" font-family="Arial" font-size="16px">confirmation_deadline</text>
   <rect width="163" height="20" x="1336" y="664" style="fill:none;stroke:black;"/>
   <text width="163" height="20" x="1341" y="678" style="fill:black;" font-family="Arial" font-size="16px">owner_name</text>
   <rect width="163" height="20" x="1336" y="684" style="fill:none;stroke:black;"/>
   <text width="163" height="20" x="1341" y="698" style="fill:black;" font-family="Arial" font-size="16px">owner_phone</text>
   <rect width="163" height="20" x="1336" y="704" style="fill:none;stroke:black;"/>
   <text width="163" height="20" x="1341" y="718" style="fill:black;" font-family="Arial" font-size="16px">car_plate</text>
   <rect width="163" height="20" x="1336" y="724" style="fill:none;stroke:black;"/>
   <text width="163" height="20" x="1341" y="738" style="fill:black;" font-family="Arial" font-size="16px">car_model</text>
   <rect width="163" height="20" x="1336" y="744" style="fill:none;stroke:black;"/>
   <text width="163" height="20" x="1341" y="758" style="fill:black;" font-family="Arial" font-size="16px">lat</text>
   <rect width="163" height="20" x="1336" y="764" style="fill:none;stroke:black;"/>
   <text width="163" height="20" x="1341" y="778" style="fill:black;" font-family="Arial" font-size="16px">lng</text>
   <rect width="163" height="20" x="1336" y="784" style="fill:none;stroke:black;"/>
   <text width="163" height="20" x="1341" y="798" style="fill:black;" font-family="Arial" font-size="16px">ambulance_code</text>
   <rect width="163" height="20" x="1336" y="804" style="fill:none;stroke:black;"/>
   <text width="163" height="20" x="1341" y="818" style="fill:black;" font-family="Arial" font-size="16px">hospital_name</text>
   <rect width="163" height="20" x="1336" y="824" style="fill:none;stroke:black;"/>
   <text width="163" height="20" x="1341" y="838" style="fill:black;" font-family="Arial" font-size="16px">minutes_elapsed</text>
</svg>
